<svg xmlns="http://www.w3.org/2000/svg" viewBox="0 0 1200 1200" role="img" aria-labelledby="title desc">
  <title id="title">archive placeholder</title>
  <desc id="desc">minimal square archive index placeholder with fine line studies</desc>
  <rect width="1200" height="1200" fill="#f6f3ec"/>
  <rect x="120" y="120" width="960" height="960" fill="none" stroke="#151412" stroke-opacity="0.12"/>
  <path d="M216 308h768M216 476h768M216 644h768M216 812h768" fill="none" stroke="#151412" stroke-opacity="0.16"/>
  <path d="M308 216v768M476 216v768M644 216v768M812 216v768" fill="none" stroke="#151412" stroke-opacity="0.1"/>
  <path d="M278 852c112-178 252-238 420-180 142 49 224 18 316-88" fill="none" stroke="#151412" stroke-opacity="0.42" stroke-width="2"/>
  <path d="M278 690c112-178 252-238 420-180 142 49 224 18 316-88" fill="none" stroke="#151412" stroke-opacity="0.24" stroke-width="2"/>
  <circle cx="476" cy="476" r="72" fill="none" stroke="#151412" stroke-opacity="0.24" stroke-width="2"/>
  <circle cx="812" cy="644" r="7" fill="#f6f3ec" stroke="#151412" stroke-opacity="0.52" stroke-width="2"/>
</svg>
